<svg width="180" height="54" viewBox="0 0 180 54" fill="none" xmlns="http://www.w3.org/2000/svg">
<g clip-path="url(#clip0_2157_15656)">
<path d="M173.596 53.3333H6.30533C2.82933 53.3333 0 50.496 0 47.0227V6.30133C0 2.82667 2.82933 0 6.30533 0H173.596C177.071 0 180 2.82667 180 6.30133V47.0227C180 50.496 177.071 53.3333 173.596 53.3333Z" fill="#A6A6A6"/>
<path d="M178.709 47.0239C178.709 49.8452 176.424 52.1305 173.597 52.1305H6.30537C3.48004 52.1305 1.18671 49.8452 1.18671 47.0239V6.29986C1.18671 3.47986 3.48004 1.18652 6.30537 1.18652H173.596C176.424 1.18652 178.708 3.47986 178.708 6.29986L178.709 47.0239Z" fill="black"/>
<path d="M40.1706 26.3785C40.132 22.0812 43.6893 19.9905 43.852 19.8932C41.8373 16.9559 38.7146 16.5545 37.6173 16.5225C34.9946 16.2465 32.4506 18.0919 31.1146 18.0919C29.752 18.0919 27.6946 16.5492 25.4773 16.5945C22.624 16.6385 19.9546 18.2905 18.4906 20.8559C15.4693 26.0865 17.7226 33.7732 20.6173 38.0012C22.0653 40.0719 23.7573 42.3839 25.972 42.3025C28.1386 42.2132 28.948 40.9212 31.5626 40.9212C34.1533 40.9212 34.9133 42.3025 37.172 42.2505C39.4973 42.2132 40.9613 40.1705 42.3586 38.0812C44.032 35.7079 44.704 33.3705 44.7306 33.2505C44.676 33.2319 40.2146 31.5292 40.1706 26.3785Z" fill="white"/>
<path d="M35.904 13.7413C37.0693 12.284 37.8667 10.3013 37.6453 8.28931C35.9587 8.36397 33.8493 9.45597 32.6347 10.8813C31.56 12.1373 30.6 14.196 30.848 16.132C32.7427 16.2733 34.688 15.176 35.904 13.7413Z" fill="white"/>
<path d="M71.5267 42.0055H68.4987L66.84 36.7935H61.0747L59.4947 42.0055H56.5467L62.2587 24.2615H65.7867L71.5267 42.0055ZM66.34 34.6068L64.84 29.9735C64.6814 29.5001 64.384 28.3855 63.9454 26.6308H63.892C63.7174 27.3855 63.436 28.5001 63.0494 29.9735L61.576 34.6068H66.34Z" fill="white"/>
<path d="M86.216 35.4507C86.216 37.6267 85.628 39.3467 84.452 40.6093C83.3987 41.7333 82.0907 42.2947 80.5294 42.2947C78.844 42.2947 77.6334 41.6893 76.896 40.4787H76.8427V47.2187H74V33.4227C74 32.0547 73.964 30.6507 73.8947 29.2107H76.3947L76.5534 31.2387H76.6067C77.5547 29.7107 78.9934 28.948 80.924 28.948C82.4334 28.948 83.6934 29.544 84.7014 30.7373C85.712 31.932 86.216 33.5027 86.216 35.4507ZM83.32 35.5547C83.32 34.3093 83.04 33.2827 82.4774 32.4747C81.8627 31.632 81.0374 31.2107 80.0027 31.2107C79.3014 31.2107 78.664 31.4453 78.0947 31.908C77.524 32.3747 77.1507 32.984 76.976 33.7387C76.888 34.0907 76.844 34.3787 76.844 34.6053V36.7387C76.844 37.6693 77.1294 38.4547 77.7 39.096C78.2707 39.7373 79.012 40.0573 79.924 40.0573C80.9947 40.0573 81.828 39.644 82.424 38.82C83.0214 37.9947 83.32 36.9067 83.32 35.5547Z" fill="white"/>
<path d="M100.932 35.4507C100.932 37.6267 100.344 39.3467 99.1667 40.6093C98.1147 41.7333 96.8067 42.2947 95.2454 42.2947C93.5601 42.2947 92.3494 41.6893 91.6134 40.4787H91.5601V47.2187H88.7174V33.4227C88.7174 32.0547 88.6814 30.6507 88.6121 29.2107H91.1121L91.2707 31.2387H91.3241C92.2707 29.7107 93.7094 28.948 95.6414 28.948C97.1494 28.948 98.4094 29.544 99.4201 30.7373C100.427 31.932 100.932 33.5027 100.932 35.4507ZM98.0361 35.5547C98.0361 34.3093 97.7547 33.2827 97.1921 32.4747C96.5774 31.632 95.7547 31.2107 94.7187 31.2107C94.0161 31.2107 93.3801 31.4453 92.8094 31.908C92.2387 32.3747 91.8667 32.984 91.6921 33.7387C91.6054 34.0907 91.5601 34.3787 91.5601 34.6053V36.7387C91.5601 37.6693 91.8454 38.4547 92.4134 39.096C92.9841 39.736 93.7254 40.0573 94.6401 40.0573C95.7107 40.0573 96.5441 39.644 97.1401 38.82C97.7374 37.9947 98.0361 36.9067 98.0361 35.5547Z" fill="white"/>
<path d="M117.385 37.0292C117.385 38.5386 116.861 39.7666 115.809 40.7146C114.653 41.7506 113.044 42.2679 110.976 42.2679C109.067 42.2679 107.536 41.8999 106.377 41.1626L107.036 38.7932C108.284 39.5479 109.653 39.9266 111.145 39.9266C112.216 39.9266 113.049 39.6839 113.648 39.2012C114.244 38.7186 114.541 38.0706 114.541 37.2626C114.541 36.5426 114.296 35.9359 113.804 35.4439C113.315 34.9519 112.497 34.4946 111.356 34.0719C108.249 32.9132 106.697 31.2159 106.697 28.9839C106.697 27.5252 107.241 26.3292 108.331 25.3986C109.416 24.4666 110.864 24.0012 112.675 24.0012C114.289 24.0012 115.631 24.2826 116.701 24.8439L115.991 27.1612C114.991 26.6172 113.86 26.3452 112.595 26.3452C111.595 26.3452 110.813 26.5919 110.253 27.0826C109.78 27.5212 109.543 28.0559 109.543 28.6892C109.543 29.3906 109.813 29.9706 110.357 30.4266C110.831 30.8479 111.691 31.3039 112.939 31.7959C114.465 32.4106 115.587 33.1292 116.308 33.9532C117.027 34.7746 117.385 35.8026 117.385 37.0292Z" fill="white"/>
<path d="M126.784 31.344H123.651V37.556C123.651 39.136 124.203 39.9254 125.309 39.9254C125.817 39.9254 126.239 39.8814 126.572 39.7934L126.651 41.952C126.091 42.1614 125.353 42.2667 124.44 42.2667C123.317 42.2667 122.44 41.924 121.807 41.24C121.176 40.5547 120.859 39.4054 120.859 37.7907V31.3414H118.992V29.208H120.859V26.8654L123.651 26.0227V29.208H126.784V31.344Z" fill="white"/>
<path d="M140.921 35.5026C140.921 37.4692 140.359 39.0839 139.236 40.3466C138.059 41.6466 136.496 42.2946 134.548 42.2946C132.671 42.2946 131.176 41.6719 130.061 40.4266C128.947 39.1812 128.389 37.6092 128.389 35.7146C128.389 33.7319 128.963 32.1079 130.113 30.8452C131.261 29.5812 132.811 28.9492 134.759 28.9492C136.636 28.9492 138.147 29.5719 139.287 30.8186C140.377 32.0279 140.921 33.5892 140.921 35.5026ZM137.972 35.5946C137.972 34.4146 137.72 33.4026 137.209 32.5586C136.613 31.5372 135.761 31.0279 134.657 31.0279C133.515 31.0279 132.647 31.5386 132.051 32.5586C131.54 33.4039 131.288 34.4319 131.288 35.6479C131.288 36.8279 131.54 37.8399 132.051 38.6826C132.665 39.7039 133.524 40.2132 134.632 40.2132C135.717 40.2132 136.569 39.6932 137.184 38.6559C137.708 37.7959 137.972 36.7732 137.972 35.5946Z" fill="white"/>
<path d="M150.161 31.7107C149.88 31.6587 149.58 31.632 149.265 31.632C148.265 31.632 147.492 32.0093 146.948 32.7653C146.475 33.432 146.237 34.2747 146.237 35.292V42.0053H143.396L143.423 33.24C143.423 31.7653 143.387 30.4227 143.316 29.212H145.792L145.896 31.66H145.975C146.275 30.8187 146.748 30.1413 147.396 29.6333C148.029 29.176 148.713 28.948 149.451 28.948C149.713 28.948 149.951 28.9667 150.161 29V31.7107Z" fill="white"/>
<path d="M162.875 35.0025C162.875 35.5118 162.841 35.9412 162.771 36.2918H154.243C154.276 37.5558 154.688 38.5225 155.48 39.1892C156.199 39.7852 157.128 40.0838 158.269 40.0838C159.532 40.0838 160.684 39.8825 161.72 39.4785L162.165 41.4518C160.955 41.9798 159.525 42.2425 157.876 42.2425C155.892 42.2425 154.335 41.6585 153.201 40.4918C152.071 39.3252 151.504 37.7585 151.504 35.7932C151.504 33.8638 152.031 32.2572 153.085 30.9758C154.189 29.6078 155.681 28.9238 157.559 28.9238C159.403 28.9238 160.799 29.6078 161.747 30.9758C162.497 32.0625 162.875 33.4065 162.875 35.0025ZM160.164 34.2652C160.183 33.4225 159.997 32.6945 159.612 32.0798C159.12 31.2892 158.364 30.8945 157.347 30.8945C156.417 30.8945 155.661 31.2798 155.084 32.0532C154.611 32.6678 154.329 33.4052 154.243 34.2638L160.164 34.2652Z" fill="white"/>
<path d="M65.4 13.3453C65.4 14.9146 64.9293 16.0959 63.9893 16.8893C63.1187 17.6213 61.8813 17.9879 60.2787 17.9879C59.484 17.9879 58.804 17.9533 58.2347 17.8839V9.30926C58.9773 9.18926 59.7773 9.12793 60.6413 9.12793C62.168 9.12793 63.3187 9.45993 64.0947 10.1239C64.964 10.8746 65.4 11.9479 65.4 13.3453ZM63.9267 13.3839C63.9267 12.3666 63.6573 11.5866 63.1187 11.0426C62.58 10.4999 61.7933 10.2279 60.7573 10.2279C60.3173 10.2279 59.9427 10.2573 59.632 10.3186V16.8373C59.804 16.8639 60.1187 16.8759 60.576 16.8759C61.6453 16.8759 62.4707 16.5786 63.052 15.9839C63.6334 15.3893 63.9267 14.5226 63.9267 13.3839Z" fill="white"/>
<path d="M73.212 14.7157C73.212 15.6824 72.936 16.4744 72.384 17.0957C71.8054 17.7344 71.0387 18.0531 70.0814 18.0531C69.1587 18.0531 68.424 17.7477 67.876 17.1344C67.3294 16.5224 67.056 15.7504 67.056 14.8197C67.056 13.8464 67.3374 13.0477 67.9027 12.4277C68.468 11.8077 69.228 11.4971 70.1854 11.4971C71.108 11.4971 71.8494 11.8024 72.4107 12.4144C72.944 13.0091 73.212 13.7771 73.212 14.7157ZM71.7627 14.7611C71.7627 14.1811 71.6374 13.6837 71.388 13.2691C71.0947 12.7677 70.6774 12.5171 70.1347 12.5171C69.5734 12.5171 69.1467 12.7677 68.8534 13.2691C68.6027 13.6837 68.4787 14.1891 68.4787 14.7864C68.4787 15.3664 68.604 15.8637 68.8534 16.2784C69.156 16.7797 69.5774 17.0304 70.1214 17.0304C70.6547 17.0304 71.0734 16.7757 71.3747 16.2651C71.6334 15.8424 71.7627 15.3411 71.7627 14.7611Z" fill="white"/>
<path d="M83.6867 11.6252L81.72 17.9106H80.44L79.6254 15.1812C79.4187 14.4999 79.2507 13.8226 79.12 13.1506H79.0947C78.9733 13.8412 78.8054 14.5172 78.5894 15.1812L77.724 17.9106H76.4293L74.58 11.6252H76.016L76.7267 14.6132C76.8987 15.3199 77.04 15.9932 77.1534 16.6306H77.1787C77.2827 16.1052 77.4547 15.4359 77.6973 14.6266L78.5894 11.6266H79.728L80.5827 14.5626C80.7893 15.2786 80.9573 15.9679 81.0867 16.6319H81.1254C81.22 15.9852 81.3627 15.2959 81.552 14.5626L82.3147 11.6266H83.6867V11.6252Z" fill="white"/>
<path d="M90.9307 17.9105H89.5334V14.3105C89.5334 13.2012 89.112 12.6465 88.2667 12.6465C87.852 12.6465 87.5174 12.7985 87.2574 13.1038C87.0001 13.4092 86.8694 13.7692 86.8694 14.1812V17.9092H85.472V13.4212C85.472 12.8692 85.4547 12.2705 85.4214 11.6225H86.6494L86.7147 12.6052H86.7534C86.9161 12.2998 87.1587 12.0478 87.4774 11.8465C87.8561 11.6118 88.28 11.4932 88.744 11.4932C89.3307 11.4932 89.8187 11.6825 90.2067 12.0625C90.6894 12.5278 90.9307 13.2225 90.9307 14.1452V17.9105Z" fill="white"/>
<path d="M94.784 17.9105H93.388V8.74121H94.784V17.9105Z" fill="white"/>
<path d="M103.011 14.7157C103.011 15.6824 102.735 16.4744 102.183 17.0957C101.604 17.7344 100.836 18.0531 99.88 18.0531C98.956 18.0531 98.2213 17.7477 97.6747 17.1344C97.128 16.5224 96.8547 15.7504 96.8547 14.8197C96.8547 13.8464 97.136 13.0477 97.7013 12.4277C98.2667 11.8077 99.0267 11.4971 99.9827 11.4971C100.907 11.4971 101.647 11.8024 102.209 12.4144C102.743 13.0091 103.011 13.7771 103.011 14.7157ZM101.56 14.7611C101.56 14.1811 101.435 13.6837 101.185 13.2691C100.893 12.7677 100.475 12.5171 99.9333 12.5171C99.3707 12.5171 98.944 12.7677 98.652 13.2691C98.4013 13.6837 98.2773 14.1891 98.2773 14.7864C98.2773 15.3664 98.4027 15.8637 98.652 16.2784C98.9547 16.7797 99.376 17.0304 99.92 17.0304C100.453 17.0304 100.871 16.7757 101.172 16.2651C101.432 15.8424 101.56 15.3411 101.56 14.7611Z" fill="white"/>
<path d="M109.773 17.9104H108.519L108.415 17.1864H108.376C107.947 17.7637 107.335 18.0531 106.54 18.0531C105.947 18.0531 105.467 17.8624 105.105 17.4837C104.777 17.1397 104.613 16.7117 104.613 16.2037C104.613 15.4357 104.933 14.8504 105.577 14.4451C106.22 14.0397 107.124 13.8411 108.288 13.8504V13.7331C108.288 12.9051 107.853 12.4917 106.983 12.4917C106.363 12.4917 105.816 12.6477 105.344 12.9571L105.06 12.0397C105.644 11.6784 106.365 11.4971 107.216 11.4971C108.859 11.4971 109.683 12.3637 109.683 14.0971V16.4117C109.683 17.0397 109.713 17.5397 109.773 17.9104ZM108.323 15.7504V14.7811C106.781 14.7544 106.011 15.1771 106.011 16.0477C106.011 16.3757 106.099 16.6211 106.279 16.7851C106.459 16.9491 106.688 17.0304 106.961 17.0304C107.268 17.0304 107.555 16.9331 107.816 16.7397C108.079 16.5451 108.24 16.2984 108.3 15.9957C108.315 15.9277 108.323 15.8451 108.323 15.7504Z" fill="white"/>
<path d="M117.713 17.9105H116.473L116.408 16.9012H116.369C115.973 17.6692 115.299 18.0532 114.351 18.0532C113.593 18.0532 112.963 17.7559 112.463 17.1612C111.963 16.5665 111.713 15.7945 111.713 14.8465C111.713 13.8292 111.984 13.0052 112.528 12.3759C113.055 11.7892 113.7 11.4959 114.468 11.4959C115.312 11.4959 115.903 11.7799 116.239 12.3492H116.265V8.74121H117.664V16.2172C117.664 16.8292 117.68 17.3932 117.713 17.9105ZM116.265 15.2599V14.2119C116.265 14.0305 116.252 13.8839 116.227 13.7719C116.148 13.4359 115.979 13.1532 115.721 12.9252C115.461 12.6972 115.148 12.5825 114.787 12.5825C114.265 12.5825 113.857 12.7892 113.557 13.2039C113.26 13.6185 113.109 14.1479 113.109 14.7945C113.109 15.4159 113.252 15.9199 113.539 16.3079C113.841 16.7212 114.249 16.9279 114.76 16.9279C115.219 16.9279 115.585 16.7559 115.864 16.4105C116.133 16.0919 116.265 15.7079 116.265 15.2599Z" fill="white"/>
<path d="M129.664 14.7157C129.664 15.6824 129.388 16.4744 128.836 17.0957C128.257 17.7344 127.492 18.0531 126.533 18.0531C125.612 18.0531 124.877 17.7477 124.328 17.1344C123.781 16.5224 123.508 15.7504 123.508 14.8197C123.508 13.8464 123.789 13.0477 124.355 12.4277C124.92 11.8077 125.68 11.4971 126.639 11.4971C127.56 11.4971 128.303 11.8024 128.863 12.4144C129.396 13.0091 129.664 13.7771 129.664 14.7157ZM128.216 14.7611C128.216 14.1811 128.091 13.6837 127.841 13.2691C127.547 12.7677 127.131 12.5171 126.587 12.5171C126.027 12.5171 125.6 12.7677 125.305 13.2691C125.055 13.6837 124.931 14.1891 124.931 14.7864C124.931 15.3664 125.056 15.8637 125.305 16.2784C125.608 16.7797 126.029 17.0304 126.573 17.0304C127.107 17.0304 127.527 16.7757 127.828 16.2651C128.085 15.8424 128.216 15.3411 128.216 14.7611Z" fill="white"/>
<path d="M137.177 17.9105H135.781V14.3105C135.781 13.2012 135.36 12.6465 134.513 12.6465C134.099 12.6465 133.764 12.7985 133.505 13.1038C133.247 13.4092 133.117 13.7692 133.117 14.1812V17.9092H131.719V13.4212C131.719 12.8692 131.703 12.2705 131.669 11.6225H132.896L132.961 12.6052H133C133.164 12.2998 133.407 12.0478 133.724 11.8465C134.104 11.6118 134.527 11.4932 134.992 11.4932C135.577 11.4932 136.065 11.6825 136.453 12.0625C136.937 12.5278 137.177 13.2225 137.177 14.1452V17.9105Z" fill="white"/>
<path d="M146.581 12.6718H145.043V15.7251C145.043 16.5011 145.316 16.8891 145.857 16.8891C146.108 16.8891 146.316 16.8678 146.48 16.8238L146.516 17.8838C146.24 17.9878 145.877 18.0398 145.431 18.0398C144.879 18.0398 144.449 17.8718 144.139 17.5358C143.827 17.1998 143.672 16.6345 143.672 15.8411V12.6718H142.753V11.6251H143.672V10.4731L145.041 10.0598V11.6238H146.58L146.581 12.6718Z" fill="white"/>
<path d="M153.979 17.9105H152.58V14.3372C152.58 13.2105 152.159 12.6465 151.315 12.6465C150.667 12.6465 150.224 12.9732 149.981 13.6265C149.94 13.7639 149.916 13.9319 149.916 14.1292V17.9092H148.52V8.74121H149.916V12.5292H149.943C150.383 11.8399 151.013 11.4959 151.831 11.4959C152.409 11.4959 152.888 11.6852 153.268 12.0652C153.741 12.5385 153.979 13.2425 153.979 14.1732V17.9105Z" fill="white"/>
<path d="M161.609 14.4707C161.609 14.7214 161.591 14.932 161.557 15.104H157.367C157.385 15.7254 157.585 16.1987 157.973 16.5267C158.328 16.82 158.785 16.9667 159.345 16.9667C159.965 16.9667 160.531 16.868 161.04 16.6694L161.259 17.64C160.663 17.8987 159.961 18.028 159.149 18.028C158.176 18.028 157.409 17.7414 156.855 17.168C156.297 16.5947 156.021 15.8254 156.021 14.86C156.021 13.912 156.279 13.1227 156.797 12.4934C157.339 11.8214 158.071 11.4854 158.995 11.4854C159.899 11.4854 160.585 11.8214 161.049 12.4934C161.424 13.0267 161.609 13.6867 161.609 14.4707ZM160.276 14.1094C160.287 13.6947 160.195 13.3374 160.005 13.036C159.763 12.648 159.393 12.4534 158.893 12.4534C158.437 12.4534 158.065 12.6427 157.781 13.0227C157.549 13.3254 157.412 13.6867 157.367 14.1094H160.276Z" fill="white"/>
</g>
<defs>
<clipPath id="clip0_2157_15656">
<rect width="180" height="53.3333" fill="white"/>
</clipPath>
</defs>
</svg>
