<svg width="130" height="115" viewBox="0 0 130 115" fill="none" xmlns="http://www.w3.org/2000/svg">
<g filter="url(#filter0_d_275_2335)">
<path d="M84.1481 53.6183C83.9751 51.8798 83.307 50.2275 82.2231 48.8573C81.1392 47.4872 79.6849 46.4568 78.0329 45.8883C76.3809 45.3199 74.6005 45.2373 72.903 45.6503C71.2055 46.0634 69.6621 46.9548 68.456 48.2187C68.4317 48.2453 68.4021 48.2665 68.3691 48.2811C68.3361 48.2956 68.3005 48.3031 68.2644 48.3031C68.2284 48.3031 68.1928 48.2956 68.1598 48.2811C68.1268 48.2665 68.0972 48.2453 68.0729 48.2187C67.2481 47.3075 66.2479 46.5722 65.1321 46.0568C64.0163 45.5414 62.808 45.2566 61.5795 45.2195C60.351 45.1823 59.1276 45.3935 57.9827 45.8404C56.8378 46.2874 55.7949 46.9609 54.9165 47.8205C54.0381 48.6802 53.3423 49.7083 52.8708 50.8434C52.3993 51.9784 52.1618 53.1969 52.1725 54.4259C52.1832 55.6549 52.4419 56.8691 52.9331 57.9958C53.4243 59.1224 54.1379 60.1383 55.0311 60.9825L67.5849 73.0791C67.7735 73.2599 68.0247 73.3609 68.2861 73.3609C68.5474 73.3609 68.7986 73.2599 68.9873 73.0791L81.1456 61.279C81.3186 61.1266 81.4854 60.966 81.646 60.7971H81.6831C82.5865 59.8485 83.2744 58.716 83.6998 57.477C84.1252 56.238 84.2782 54.9218 84.1481 53.6183Z" fill="white"/>
<path d="M93.9828 70.4598C93.9828 69.6946 93.6788 68.9607 93.1378 68.4197C92.5967 67.8786 91.8628 67.5746 91.0977 67.5746C90.3325 67.5746 89.5986 67.8786 89.0576 68.4197C88.5165 68.9607 88.2125 69.6946 88.2125 70.4598V71.6954C88.2129 73.6823 87.4469 75.5927 86.074 77.029C84.701 78.4652 82.827 79.3165 80.8421 79.4056H54.3631C52.3691 79.4055 50.4525 78.6335 49.0151 77.2514C47.5777 75.8693 46.7312 73.9844 46.653 71.9919V65.5483C46.6533 64.1975 46.1244 62.9004 45.1797 61.9349C44.2351 60.9695 42.9498 60.4125 41.5993 60.3834H35.3348C34.5125 60.3826 33.698 60.5439 32.938 60.858C32.178 61.1722 31.4873 61.633 30.9055 62.2143C30.3237 62.7955 29.8622 63.4857 29.5473 64.2454C29.2324 65.0051 29.0703 65.8194 29.0703 66.6418V71.9672C29.0703 79.5538 36.311 86.3373 48.5249 86.3373H81.7503C83.3569 86.3381 84.948 86.0223 86.4324 85.4078C87.9169 84.7934 89.2657 83.8923 90.4018 82.7563C91.5378 81.6202 92.4388 80.2714 93.0533 78.7869C93.6678 77.3025 93.9836 75.7114 93.9828 74.1048V70.4598Z" fill="white"/>
<path d="M99.9941 50.7334L72.2919 21.7461C71.6405 21.0658 70.8056 20.5893 69.8886 20.3746H69.8392C69.6909 20.3746 69.5427 20.319 69.3882 20.3004C58.4716 18.5335 47.5056 24.9587 41.723 29.1782V28.6964C41.723 27.5609 41.2719 26.4719 40.469 25.669C39.6661 24.8661 38.5771 24.415 37.4416 24.415H37.1883C36.0529 24.415 34.9639 24.8661 34.161 25.669C33.358 26.4719 32.907 27.5609 32.907 28.6964V36.2644L20.6868 46.9092C20.0358 47.4626 19.5447 48.1803 19.2646 48.9876C18.9845 49.7949 18.9255 50.6624 19.0938 51.5002C19.2621 52.338 19.6516 53.1155 20.2218 53.7519C20.7919 54.3884 21.5221 54.8607 22.3364 55.1198C22.3364 55.1198 31.4613 58.5177 46.5233 46.4705L64.211 32.0078C65.3734 31.0583 66.8401 30.5616 68.3402 30.6093C69.8403 30.657 71.2725 31.2459 72.3722 32.2673L88.0149 47.2798C93.1118 52.4261 96.9113 53.7235 98.0542 54.0201C98.1578 54.0506 98.263 54.0754 98.3693 54.0942H98.4187H98.6597C98.9163 54.095 99.1705 54.0451 99.4077 53.9473C99.645 53.8494 99.8605 53.7057 100.042 53.5242C100.223 53.3428 100.367 53.1272 100.465 52.89C100.563 52.6528 100.613 52.3986 100.612 52.142C100.612 51.8773 100.556 51.6155 100.45 51.3731C100.344 51.1307 100.189 50.9129 99.9941 50.7334Z" fill="white"/>
</g>
<defs>
<filter id="filter0_d_275_2335" x="0.161658" y="0.129326" width="129.612" height="114.337" filterUnits="userSpaceOnUse" color-interpolation-filters="sRGB">
<feFlood flood-opacity="0" result="BackgroundImageFix"/>
<feColorMatrix in="SourceAlpha" type="matrix" values="0 0 0 0 0 0 0 0 0 0 0 0 0 0 0 0 0 0 127 0" result="hardAlpha"/>
<feOffset dx="5.16166" dy="4.12933"/>
<feGaussianBlur stdDeviation="12"/>
<feComposite in2="hardAlpha" operator="out"/>
<feColorMatrix type="matrix" values="0 0 0 0 0.199167 0 0 0 0 0.199167 0 0 0 0 0.199167 0 0 0 0.1 0"/>
<feBlend mode="normal" in2="BackgroundImageFix" result="effect1_dropShadow_275_2335"/>
<feBlend mode="normal" in="SourceGraphic" in2="effect1_dropShadow_275_2335" result="shape"/>
</filter>
</defs>
</svg>
